<svg xmlns="http://www.w3.org/2000/svg" width="1080" height="1920"><path d="M506,903L568,810L438,778Z" fill="#a2a2a2" stroke="#a2a2a2" stroke-width="1.51"/><path d="M438,778L393,879L506,903Z" fill="#a6a6a6" stroke="#a6a6a6" stroke-width="1.51"/><path d="M518,643L452,662L438,778Z" fill="#afafaf" stroke="#afafaf" stroke-width="1.51"/><path d="M693,859L628,796L568,810Z" fill="#979797" stroke="#979797" stroke-width="1.51"/><path d="M518,643L438,778L568,810Z" fill="#a8a8a8" stroke="#a8a8a8" stroke-width="1.51"/><path d="M438,778L276,825L393,879Z" fill="#b1b1b1" stroke="#b1b1b1" stroke-width="1.51"/><path d="M628,796L518,643L568,810Z" fill="#a1a1a1" stroke="#a1a1a1" stroke-width="1.51"/><path d="M393,879L409,1008L506,903Z" fill="#a2a2a2" stroke="#a2a2a2" stroke-width="1.51"/><path d="M506,903L693,859L568,810Z" fill="#989898" stroke="#989898" stroke-width="1.51"/><path d="M564,1031L693,859L506,903Z" fill="#939393" stroke="#939393" stroke-width="1.51"/><path d="M638,638L508,595L518,643Z" fill="#aaaaaa" stroke="#aaaaaa" stroke-width="1.51"/><path d="M409,1008L564,1031L506,903Z" fill="#999999" stroke="#999999" stroke-width="1.51"/><path d="M322,631L276,825L438,778Z" fill="#b8b8b8" stroke="#b8b8b8" stroke-width="1.51"/><path d="M393,879L267,938L409,1008Z" fill="#aaaaaa" stroke="#aaaaaa" stroke-width="1.51"/><path d="M518,643L508,595L452,662Z" fill="#b0b0b0" stroke="#b0b0b0" stroke-width="1.51"/><path d="M452,662L322,631L438,778Z" fill="#b6b6b6" stroke="#b6b6b6" stroke-width="1.51"/><path d="M638,638L518,643L628,796Z" fill="#a3a3a3" stroke="#a3a3a3" stroke-width="1.51"/><path d="M734,769L638,638L628,796Z" fill="#999999" stroke="#999999" stroke-width="1.51"/><path d="M693,859L734,769L628,796Z" fill="#929292" stroke="#929292" stroke-width="1.51"/><path d="M276,825L267,938L393,879Z" fill="#b2b2b2" stroke="#b2b2b2" stroke-width="1.51"/><path d="M441,570L322,631L452,662Z" fill="#bababa" stroke="#bababa" stroke-width="1.51"/><path d="M508,595L441,570L452,662Z" fill="#b4b4b4" stroke="#b4b4b4" stroke-width="1.51"/><path d="M496,427L441,570L508,595Z" fill="#b6b6b6" stroke="#b6b6b6" stroke-width="1.51"/><path d="M693,859L753,904L734,769Z" fill="#8c8c8c" stroke="#8c8c8c" stroke-width="1.51"/><path d="M736,976L753,904L693,859Z" fill="#878787" stroke="#878787" stroke-width="1.51"/><path d="M276,825L154,861L267,938Z" fill="#b8b8b8" stroke="#b8b8b8" stroke-width="1.51"/><path d="M322,631L215,802L276,825Z" fill="#bdbdbd" stroke="#bdbdbd" stroke-width="1.51"/><path d="M681,1042L736,976L693,859Z" fill="#868686" stroke="#868686" stroke-width="1.51"/><path d="M564,1031L681,1042L693,859Z" fill="#8b8b8b" stroke="#8b8b8b" stroke-width="1.51"/><path d="M267,938L268,1001L409,1008Z" fill="#ababab" stroke="#ababab" stroke-width="1.51"/><path d="M499,1149L636,1091L564,1031Z" fill="#8b8b8b" stroke="#8b8b8b" stroke-width="1.51"/><path d="M165,1021L268,1001L267,938Z" fill="#b1b1b1" stroke="#b1b1b1" stroke-width="1.51"/><path d="M322,631L201,630L215,802Z" fill="#c4c4c4" stroke="#c4c4c4" stroke-width="1.51"/><path d="M441,570L305,599L322,631Z" fill="#c0c0c0" stroke="#c0c0c0" stroke-width="1.51"/><path d="M564,1031L636,1091L681,1042Z" fill="#888888" stroke="#888888" stroke-width="1.51"/><path d="M499,1149L564,1031L409,1008Z" fill="#949494" stroke="#949494" stroke-width="1.51"/><path d="M638,638L643,562L508,595Z" fill="#a7a7a7" stroke="#a7a7a7" stroke-width="1.51"/><path d="M807,661L643,562L638,638Z" fill="#9d9d9d" stroke="#9d9d9d" stroke-width="1.51"/><path d="M427,1162L499,1149L409,1008Z" fill="#979797" stroke="#979797" stroke-width="1.51"/><path d="M299,1117L427,1162L409,1008Z" fill="#9e9e9e" stroke="#9e9e9e" stroke-width="1.51"/><path d="M215,802L154,861L276,825Z" fill="#bcbcbc" stroke="#bcbcbc" stroke-width="1.51"/><path d="M84,790L154,861L215,802Z" fill="#c2c2c2" stroke="#c2c2c2" stroke-width="1.51"/><path d="M753,904L843,818L734,769Z" fill="#888888" stroke="#888888" stroke-width="1.51"/><path d="M734,769L807,661L638,638Z" fill="#969696" stroke="#969696" stroke-width="1.51"/><path d="M844,888L843,818L753,904Z" fill="#828282" stroke="#828282" stroke-width="1.51"/><path d="M268,1001L299,1117L409,1008Z" fill="#a6a6a6" stroke="#a6a6a6" stroke-width="1.51"/><path d="M230,1120L299,1117L268,1001Z" fill="#a8a8a8" stroke="#a8a8a8" stroke-width="1.51"/><path d="M305,599L201,630L322,631Z" fill="#c5c5c5" stroke="#c5c5c5" stroke-width="1.51"/><path d="M843,818L807,661L734,769Z" fill="#8c8c8c" stroke="#8c8c8c" stroke-width="1.51"/><path d="M736,976L844,888L753,904Z" fill="#828282" stroke="#828282" stroke-width="1.51"/><path d="M860,1047L844,888L736,976Z" fill="#7c7c7c" stroke="#7c7c7c" stroke-width="1.51"/><path d="M786,1103L736,976L681,1042Z" fill="#7f7f7f" stroke="#7f7f7f" stroke-width="1.51"/><path d="M154,861L165,1021L267,938Z" fill="#b7b7b7" stroke="#b7b7b7" stroke-width="1.51"/><path d="M278,1248L453,1260L427,1162Z" fill="#959595" stroke="#959595" stroke-width="1.51"/><path d="M165,1021L230,1120L268,1001Z" fill="#adadad" stroke="#adadad" stroke-width="1.51"/><path d="M636,1091L786,1103L681,1042Z" fill="#7f7f7f" stroke="#7f7f7f" stroke-width="1.51"/><path d="M685,1225L786,1103L636,1091Z" fill="#7c7c7c" stroke="#7c7c7c" stroke-width="1.51"/><path d="M685,1225L636,1091L574,1277Z" fill="#7f7f7f" stroke="#7f7f7f" stroke-width="1.51"/><path d="M616,442L496,427L508,595Z" fill="#b2b2b2" stroke="#b2b2b2" stroke-width="1.51"/><path d="M441,570L330,451L305,599Z" fill="#c3c3c3" stroke="#c3c3c3" stroke-width="1.51"/><path d="M305,599L178,550L201,630Z" fill="#cacaca" stroke="#cacaca" stroke-width="1.51"/><path d="M616,442L508,595L643,562Z" fill="#ababab" stroke="#ababab" stroke-width="1.51"/><path d="M496,427L422,433L441,570Z" fill="#bcbcbc" stroke="#bcbcbc" stroke-width="1.51"/><path d="M731,443L616,442L643,562Z" fill="#a6a6a6" stroke="#a6a6a6" stroke-width="1.51"/><path d="M422,433L330,451L441,570Z" fill="#c1c1c1" stroke="#c1c1c1" stroke-width="1.51"/><path d="M201,630L84,790L215,802Z" fill="#c6c6c6" stroke="#c6c6c6" stroke-width="1.51"/><path d="M154,861L66,988L165,1021Z" fill="#b9b9b9" stroke="#b9b9b9" stroke-width="1.51"/><path d="M41,670L84,790L201,630Z" fill="#cdcdcd" stroke="#cdcdcd" stroke-width="1.51"/><path d="M330,451L178,550L305,599Z" fill="#c9c9c9" stroke="#c9c9c9" stroke-width="1.51"/><path d="M786,1103L860,1047L736,976Z" fill="#797979" stroke="#797979" stroke-width="1.51"/><path d="M1033,796L904,674L843,818Z" fill="#7e7e7e" stroke="#7e7e7e" stroke-width="1.51"/><path d="M807,661L797,527L643,562Z" fill="#999999" stroke="#999999" stroke-width="1.51"/><path d="M859,595L797,527L807,661Z" fill="#919191" stroke="#919191" stroke-width="1.51"/><path d="M904,674L807,661L843,818Z" fill="#898989" stroke="#898989" stroke-width="1.51"/><path d="M904,674L859,595L807,661Z" fill="#8c8c8c" stroke="#8c8c8c" stroke-width="1.51"/><path d="M427,1162L453,1260L499,1149Z" fill="#909090" stroke="#909090" stroke-width="1.51"/><path d="M278,1248L427,1162L299,1117Z" fill="#9d9d9d" stroke="#9d9d9d" stroke-width="1.51"/><path d="M960,930L843,818L844,888Z" fill="#7c7c7c" stroke="#7c7c7c" stroke-width="1.51"/><path d="M574,1277L636,1091L499,1149Z" fill="#868686" stroke="#868686" stroke-width="1.51"/><path d="M786,1103L928,1102L860,1047Z" fill="#717171" stroke="#717171" stroke-width="1.51"/><path d="M84,790L52,906L154,861Z" fill="#c2c2c2" stroke="#c2c2c2" stroke-width="1.51"/><path d="M44,1161L161,1225L230,1120Z" fill="#ababab" stroke="#ababab" stroke-width="1.51"/><path d="M549,316L403,346L496,427Z" fill="#bebebe" stroke="#bebebe" stroke-width="1.51"/><path d="M797,527L731,443L643,562Z" fill="#9f9f9f" stroke="#9f9f9f" stroke-width="1.51"/><path d="M918,468L731,443L797,527Z" fill="#989898" stroke="#989898" stroke-width="1.51"/><path d="M453,1260L574,1277L499,1149Z" fill="#888888" stroke="#888888" stroke-width="1.51"/><path d="M52,906L66,988L154,861Z" fill="#bebebe" stroke="#bebebe" stroke-width="1.51"/><path d="M230,1120L278,1248L299,1117Z" fill="#a2a2a2" stroke="#a2a2a2" stroke-width="1.51"/><path d="M453,1260L568,1398L574,1277Z" fill="#828282" stroke="#828282" stroke-width="1.51"/><path d="M161,1225L278,1248L230,1120Z" fill="#a3a3a3" stroke="#a3a3a3" stroke-width="1.51"/><path d="M860,1047L960,930L844,888Z" fill="#767676" stroke="#767676" stroke-width="1.51"/><path d="M178,550L41,670L201,630Z" fill="#cfcfcf" stroke="#cfcfcf" stroke-width="1.51"/><path d="M84,790L-37,757L52,906Z" fill="#c9c9c9" stroke="#c9c9c9" stroke-width="1.51"/><path d="M330,451L192,450L178,550Z" fill="#cfcfcf" stroke="#cfcfcf" stroke-width="1.51"/><path d="M178,550L59,528L41,670Z" fill="#d4d4d4" stroke="#d4d4d4" stroke-width="1.51"/><path d="M221,355L192,450L330,451Z" fill="#d1d1d1" stroke="#d1d1d1" stroke-width="1.51"/><path d="M403,346L330,451L422,433Z" fill="#c6c6c6" stroke="#c6c6c6" stroke-width="1.51"/><path d="M496,427L403,346L422,433Z" fill="#c1c1c1" stroke="#c1c1c1" stroke-width="1.51"/><path d="M549,316L496,427L616,442Z" fill="#b5b5b5" stroke="#b5b5b5" stroke-width="1.51"/><path d="M904,674L964,642L859,595Z" fill="#878787" stroke="#878787" stroke-width="1.51"/><path d="M859,595L918,468L797,527Z" fill="#929292" stroke="#929292" stroke-width="1.51"/><path d="M1033,796L964,642L904,674Z" fill="#7d7d7d" stroke="#7d7d7d" stroke-width="1.51"/><path d="M860,1047L1007,1040L960,930Z" fill="#6d6d6d" stroke="#6d6d6d" stroke-width="1.51"/><path d="M891,1205L928,1102L786,1103Z" fill="#6d6d6d" stroke="#6d6d6d" stroke-width="1.51"/><path d="M344,1323L396,1333L453,1260Z" fill="#8f8f8f" stroke="#8f8f8f" stroke-width="1.51"/><path d="M632,301L549,316L616,442Z" fill="#b2b2b2" stroke="#b2b2b2" stroke-width="1.51"/><path d="M278,1248L344,1323L453,1260Z" fill="#959595" stroke="#959595" stroke-width="1.51"/><path d="M278,1248L151,1362L344,1323Z" fill="#9a9a9a" stroke="#9a9a9a" stroke-width="1.51"/><path d="M44,1161L230,1120L165,1021Z" fill="#afafaf" stroke="#afafaf" stroke-width="1.51"/><path d="M403,346L329,337L330,451Z" fill="#cbcbcb" stroke="#cbcbcb" stroke-width="1.51"/><path d="M346,215L329,337L403,346Z" fill="#cecece" stroke="#cecece" stroke-width="1.51"/><path d="M685,1225L744,1290L786,1103Z" fill="#747474" stroke="#747474" stroke-width="1.51"/><path d="M682,1327L744,1290L685,1225Z" fill="#737373" stroke="#737373" stroke-width="1.51"/><path d="M682,1327L685,1225L574,1277Z" fill="#797979" stroke="#797979" stroke-width="1.51"/><path d="M192,450L59,528L178,550Z" fill="#d4d4d4" stroke="#d4d4d4" stroke-width="1.51"/><path d="M53,441L59,528L192,450Z" fill="#d8d8d8" stroke="#d8d8d8" stroke-width="1.51"/><path d="M568,1398L682,1327L574,1277Z" fill="#797979" stroke="#797979" stroke-width="1.51"/><path d="M-46,655L-37,757L41,670Z" fill="#d4d4d4" stroke="#d4d4d4" stroke-width="1.51"/><path d="M41,670L-37,757L84,790Z" fill="#cfcfcf" stroke="#cfcfcf" stroke-width="1.51"/><path d="M52,906L-74,876L66,988Z" fill="#c3c3c3" stroke="#c3c3c3" stroke-width="1.51"/><path d="M66,988L44,1161L165,1021Z" fill="#b5b5b5" stroke="#b5b5b5" stroke-width="1.51"/><path d="M960,930L1033,796L843,818Z" fill="#767676" stroke="#767676" stroke-width="1.51"/><path d="M1123,882L1033,796L960,930Z" fill="#686868" stroke="#686868" stroke-width="1.51"/><path d="M731,443L632,301L616,442Z" fill="#aaaaaa" stroke="#aaaaaa" stroke-width="1.51"/><path d="M549,316L463,208L403,346Z" fill="#c2c2c2" stroke="#c2c2c2" stroke-width="1.51"/><path d="M777,346L632,301L731,443Z" fill="#a7a7a7" stroke="#a7a7a7" stroke-width="1.51"/><path d="M329,337L221,355L330,451Z" fill="#cfcfcf" stroke="#cfcfcf" stroke-width="1.51"/><path d="M796,1338L891,1205L744,1290Z" fill="#6a6a6a" stroke="#6a6a6a" stroke-width="1.51"/><path d="M744,1290L891,1205L786,1103Z" fill="#6f6f6f" stroke="#6f6f6f" stroke-width="1.51"/><path d="M1005,1107L1007,1040L928,1102Z" fill="#636363" stroke="#636363" stroke-width="1.51"/><path d="M928,1102L1007,1040L860,1047Z" fill="#6b6b6b" stroke="#6b6b6b" stroke-width="1.51"/><path d="M1004,561L918,468L859,595Z" fill="#8a8a8a" stroke="#8a8a8a" stroke-width="1.51"/><path d="M1004,561L859,595L964,642Z" fill="#858585" stroke="#858585" stroke-width="1.51"/><path d="M896,365L777,346L731,443Z" fill="#9e9e9e" stroke="#9e9e9e" stroke-width="1.51"/><path d="M-33,1061L44,1161L66,988Z" fill="#b8b8b8" stroke="#b8b8b8" stroke-width="1.51"/><path d="M-20,577L-46,655L41,670Z" fill="#d7d7d7" stroke="#d7d7d7" stroke-width="1.51"/><path d="M-37,757L-74,876L52,906Z" fill="#cacaca" stroke="#cacaca" stroke-width="1.51"/><path d="M-151,767L-74,876L-37,757Z" fill="#cfcfcf" stroke="#cfcfcf" stroke-width="1.51"/><path d="M-53,433L-20,577L59,528Z" fill="#dddddd" stroke="#dddddd" stroke-width="1.51"/><path d="M59,528L-20,577L41,670Z" fill="#d7d7d7" stroke="#d7d7d7" stroke-width="1.51"/><path d="M396,1333L568,1398L453,1260Z" fill="#868686" stroke="#868686" stroke-width="1.51"/><path d="M682,1327L796,1338L744,1290Z" fill="#6e6e6e" stroke="#6e6e6e" stroke-width="1.51"/><path d="M526,1447L568,1398L396,1333Z" fill="#808080" stroke="#808080" stroke-width="1.51"/><path d="M1122,704L1004,561L964,642Z" fill="#777777" stroke="#777777" stroke-width="1.51"/><path d="M-74,876L-33,1061L66,988Z" fill="#c0c0c0" stroke="#c0c0c0" stroke-width="1.51"/><path d="M891,1205L1005,1107L928,1102Z" fill="#656565" stroke="#656565" stroke-width="1.51"/><path d="M1123,882L1074,747L1033,796Z" fill="#676767" stroke="#676767" stroke-width="1.51"/><path d="M1123,882L960,930L1007,1040Z" fill="#646464" stroke="#646464" stroke-width="1.51"/><path d="M1033,796L1074,747L964,642Z" fill="#737373" stroke="#737373" stroke-width="1.51"/><path d="M101,314L53,441L192,450Z" fill="#dbdbdb" stroke="#dbdbdb" stroke-width="1.51"/><path d="M849,1396L796,1338L770,1521Z" fill="#626262" stroke="#626262" stroke-width="1.51"/><path d="M891,1205L958,1258L1005,1107Z" fill="#616161" stroke="#616161" stroke-width="1.51"/><path d="M161,1225L151,1362L278,1248Z" fill="#a0a0a0" stroke="#a0a0a0" stroke-width="1.51"/><path d="M461,1463L526,1447L396,1333Z" fill="#828282" stroke="#828282" stroke-width="1.51"/><path d="M44,1161L58,1251L161,1225Z" fill="#ababab" stroke="#ababab" stroke-width="1.51"/><path d="M-62,1270L58,1251L44,1161Z" fill="#afafaf" stroke="#afafaf" stroke-width="1.51"/><path d="M688,245L509,216L632,301Z" fill="#b5b5b5" stroke="#b5b5b5" stroke-width="1.51"/><path d="M632,301L509,216L549,316Z" fill="#b9b9b9" stroke="#b9b9b9" stroke-width="1.51"/><path d="M329,337L173,254L221,355Z" fill="#d6d6d6" stroke="#d6d6d6" stroke-width="1.51"/><path d="M918,468L896,365L731,443Z" fill="#979797" stroke="#979797" stroke-width="1.51"/><path d="M777,346L688,245L632,301Z" fill="#ababab" stroke="#ababab" stroke-width="1.51"/><path d="M1023,407L896,365L918,468Z" fill="#8d8d8d" stroke="#8d8d8d" stroke-width="1.51"/><path d="M785,236L688,245L777,346Z" fill="#a7a7a7" stroke="#a7a7a7" stroke-width="1.51"/><path d="M770,1521L796,1338L682,1327Z" fill="#686868" stroke="#686868" stroke-width="1.51"/><path d="M461,1463L396,1333L314,1475Z" fill="#898989" stroke="#898989" stroke-width="1.51"/><path d="M509,216L463,208L549,316Z" fill="#c0c0c0" stroke="#c0c0c0" stroke-width="1.51"/><path d="M221,355L101,314L192,450Z" fill="#d9d9d9" stroke="#d9d9d9" stroke-width="1.51"/><path d="M554,105L463,208L509,216Z" fill="#c2c2c2" stroke="#c2c2c2" stroke-width="1.51"/><path d="M58,1251L110,1326L161,1225Z" fill="#a7a7a7" stroke="#a7a7a7" stroke-width="1.51"/><path d="M1149,998L1123,882L1007,1040Z" fill="#5b5b5b" stroke="#5b5b5b" stroke-width="1.51"/><path d="M463,208L346,215L403,346Z" fill="#cacaca" stroke="#cacaca" stroke-width="1.51"/><path d="M1120,1149L1149,998L1007,1040Z" fill="#565656" stroke="#565656" stroke-width="1.51"/><path d="M796,1338L958,1258L891,1205Z" fill="#646464" stroke="#646464" stroke-width="1.51"/><path d="M110,1326L151,1362L161,1225Z" fill="#a2a2a2" stroke="#a2a2a2" stroke-width="1.51"/><path d="M314,1475L396,1333L344,1323Z" fill="#8f8f8f" stroke="#8f8f8f" stroke-width="1.51"/><path d="M-74,876L-128,973L-33,1061Z" fill="#c4c4c4" stroke="#c4c4c4" stroke-width="1.51"/><path d="M-33,1061L-72,1128L44,1161Z" fill="#b8b8b8" stroke="#b8b8b8" stroke-width="1.51"/><path d="M-180,907L-128,973L-74,876Z" fill="#c8c8c8" stroke="#c8c8c8" stroke-width="1.51"/><path d="M1004,561L1023,407L918,468Z" fill="#858585" stroke="#858585" stroke-width="1.51"/><path d="M1074,747L1122,704L964,642Z" fill="#717171" stroke="#717171" stroke-width="1.51"/><path d="M1251,805L1122,704L1074,747Z" fill="#626262" stroke="#626262" stroke-width="1.51"/><path d="M-128,973L-72,1128L-33,1061Z" fill="#bebebe" stroke="#bebebe" stroke-width="1.51"/><path d="M58,1251L-68,1343L110,1326Z" fill="#a8a8a8" stroke="#a8a8a8" stroke-width="1.51"/><path d="M173,254L101,314L221,355Z" fill="#dcdcdc" stroke="#dcdcdc" stroke-width="1.51"/><path d="M53,441L-53,433L59,528Z" fill="#dedede" stroke="#dedede" stroke-width="1.51"/><path d="M-46,655L-151,767L-37,757Z" fill="#d5d5d5" stroke="#d5d5d5" stroke-width="1.51"/><path d="M-166,653L-151,767L-46,655Z" fill="#d9d9d9" stroke="#d9d9d9" stroke-width="1.51"/><path d="M-166,653L-46,655L-183,558Z" fill="#dddddd" stroke="#dddddd" stroke-width="1.51"/><path d="M346,215L173,254L329,337Z" fill="#d4d4d4" stroke="#d4d4d4" stroke-width="1.51"/><path d="M688,245L651,135L509,216Z" fill="#b7b7b7" stroke="#b7b7b7" stroke-width="1.51"/><path d="M896,365L785,236L777,346Z" fill="#9e9e9e" stroke="#9e9e9e" stroke-width="1.51"/><path d="M796,1338L849,1396L958,1258Z" fill="#616161" stroke="#616161" stroke-width="1.51"/><path d="M658,1513L682,1327L568,1398Z" fill="#727272" stroke="#727272" stroke-width="1.51"/><path d="M658,1513L568,1398L526,1447Z" fill="#747474" stroke="#747474" stroke-width="1.51"/><path d="M151,1362L314,1475L344,1323Z" fill="#949494" stroke="#949494" stroke-width="1.51"/><path d="M-76,342L53,441L101,314Z" fill="#e2e2e2" stroke="#e2e2e2" stroke-width="1.51"/><path d="M-76,342L-53,433L53,441Z" fill="#e3e3e3" stroke="#e3e3e3" stroke-width="1.51"/><path d="M896,365L920,229L785,236Z" fill="#9b9b9b" stroke="#9b9b9b" stroke-width="1.51"/><path d="M1126,441L1023,407L1004,561Z" fill="#7c7c7c" stroke="#7c7c7c" stroke-width="1.51"/><path d="M1120,1149L1007,1040L1005,1107Z" fill="#5a5a5a" stroke="#5a5a5a" stroke-width="1.51"/><path d="M1230,640L1190,584L1122,704Z" fill="#656565" stroke="#656565" stroke-width="1.51"/><path d="M-128,973L-124,1147L-72,1128Z" fill="#bdbdbd" stroke="#bdbdbd" stroke-width="1.51"/><path d="M-151,767L-180,907L-74,876Z" fill="#cecece" stroke="#cecece" stroke-width="1.51"/><path d="M-151,767L-166,653L-180,907Z" fill="#d5d5d5" stroke="#d5d5d5" stroke-width="1.51"/><path d="M-183,558L-46,655L-20,577Z" fill="#dcdcdc" stroke="#dcdcdc" stroke-width="1.51"/><path d="M1122,704L1130,564L1004,561Z" fill="#717171" stroke="#717171" stroke-width="1.51"/><path d="M1190,584L1130,564L1122,704Z" fill="#6a6a6a" stroke="#6a6a6a" stroke-width="1.51"/><path d="M-72,1128L-62,1270L44,1161Z" fill="#b4b4b4" stroke="#b4b4b4" stroke-width="1.51"/><path d="M72,1479L156,1463L151,1362Z" fill="#9b9b9b" stroke="#9b9b9b" stroke-width="1.51"/><path d="M-180,907L-124,1147L-128,973Z" fill="#c4c4c4" stroke="#c4c4c4" stroke-width="1.51"/><path d="M1107,1279L1120,1149L958,1258Z" fill="#505050" stroke="#505050" stroke-width="1.51"/><path d="M958,1258L1120,1149L1005,1107Z" fill="#585858" stroke="#585858" stroke-width="1.51"/><path d="M512,1562L526,1447L461,1463Z" fill="#7a7a7a" stroke="#7a7a7a" stroke-width="1.51"/><path d="M512,1562L658,1513L526,1447Z" fill="#727272" stroke="#727272" stroke-width="1.51"/><path d="M-124,1147L-62,1270L-72,1128Z" fill="#b6b6b6" stroke="#b6b6b6" stroke-width="1.51"/><path d="M151,1362L156,1463L314,1475Z" fill="#969696" stroke="#969696" stroke-width="1.51"/><path d="M785,236L651,135L688,245Z" fill="#adadad" stroke="#adadad" stroke-width="1.51"/><path d="M405,85L335,121L346,215Z" fill="#d3d3d3" stroke="#d3d3d3" stroke-width="1.51"/><path d="M346,215L229,103L173,254Z" fill="#dadada" stroke="#dadada" stroke-width="1.51"/><path d="M756,77L651,135L785,236Z" fill="#adadad" stroke="#adadad" stroke-width="1.51"/><path d="M72,1479L151,1362L110,1326Z" fill="#9f9f9f" stroke="#9f9f9f" stroke-width="1.51"/><path d="M467,1588L512,1562L461,1463Z" fill="#797979" stroke="#797979" stroke-width="1.51"/><path d="M405,85L346,215L463,208Z" fill="#cecece" stroke="#cecece" stroke-width="1.51"/><path d="M45,218L-76,342L101,314Z" fill="#e5e5e5" stroke="#e5e5e5" stroke-width="1.51"/><path d="M651,135L554,105L509,216Z" fill="#bcbcbc" stroke="#bcbcbc" stroke-width="1.51"/><path d="M-53,433L-183,558L-20,577Z" fill="#e0e0e0" stroke="#e0e0e0" stroke-width="1.51"/><path d="M-166,653L-183,558L-180,907Z" fill="#d9d9d9" stroke="#d9d9d9" stroke-width="1.51"/><path d="M467,1588L461,1463L344,1607Z" fill="#7d7d7d" stroke="#7d7d7d" stroke-width="1.51"/><path d="M1044,312L920,229L896,365Z" fill="#909090" stroke="#909090" stroke-width="1.51"/><path d="M1044,312L896,365L1023,407Z" fill="#898989" stroke="#898989" stroke-width="1.51"/><path d="M1130,564L1126,441L1004,561Z" fill="#747474" stroke="#747474" stroke-width="1.51"/><path d="M1251,805L1074,747L1123,882Z" fill="#5f5f5f" stroke="#5f5f5f" stroke-width="1.51"/><path d="M990,1501L1006,1360L849,1396Z" fill="#545454" stroke="#545454" stroke-width="1.51"/><path d="M849,1396L1006,1360L958,1258Z" fill="#5a5a5a" stroke="#5a5a5a" stroke-width="1.51"/><path d="M1190,584L1126,441L1130,564Z" fill="#6d6d6d" stroke="#6d6d6d" stroke-width="1.51"/><path d="M658,1513L770,1521L682,1327Z" fill="#696969" stroke="#696969" stroke-width="1.51"/><path d="M690,1600L770,1521L658,1513Z" fill="#646464" stroke="#646464" stroke-width="1.51"/><path d="M554,105L405,85L463,208Z" fill="#c8c8c8" stroke="#c8c8c8" stroke-width="1.51"/><path d="M-53,433L-141,405L-183,558Z" fill="#e4e4e4" stroke="#e4e4e4" stroke-width="1.51"/><path d="M45,218L101,314L173,254Z" fill="#e1e1e1" stroke="#e1e1e1" stroke-width="1.51"/><path d="M1124,336L1044,312L1023,407Z" fill="#7f7f7f" stroke="#7f7f7f" stroke-width="1.51"/><path d="M1149,998L1247,891L1123,882Z" fill="#565656" stroke="#565656" stroke-width="1.51"/><path d="M1261,1049L1247,891L1149,998Z" fill="#4f4f4f" stroke="#4f4f4f" stroke-width="1.51"/><path d="M1247,891L1251,805L1123,882Z" fill="#565656" stroke="#565656" stroke-width="1.51"/><path d="M229,103L45,218L173,254Z" fill="#e1e1e1" stroke="#e1e1e1" stroke-width="1.51"/><path d="M229,103L346,215L335,121Z" fill="#d8d8d8" stroke="#d8d8d8" stroke-width="1.51"/><path d="M1226,368L1124,336L1126,441Z" fill="#737373" stroke="#737373" stroke-width="1.51"/><path d="M1251,805L1230,640L1122,704Z" fill="#606060" stroke="#606060" stroke-width="1.51"/><path d="M-62,1270L-68,1343L58,1251Z" fill="#adadad" stroke="#adadad" stroke-width="1.51"/><path d="M-124,1147L-133,1257L-62,1270Z" fill="#b4b4b4" stroke="#b4b4b4" stroke-width="1.51"/><path d="M-180,907L-133,1257L-124,1147Z" fill="#bdbdbd" stroke="#bdbdbd" stroke-width="1.51"/><path d="M512,1562L690,1600L658,1513Z" fill="#6a6a6a" stroke="#6a6a6a" stroke-width="1.51"/><path d="M344,1607L461,1463L314,1475Z" fill="#858585" stroke="#858585" stroke-width="1.51"/><path d="M1006,1360L1107,1279L958,1258Z" fill="#515151" stroke="#515151" stroke-width="1.51"/><path d="M1120,1149L1233,1100L1149,998Z" fill="#4e4e4e" stroke="#4e4e4e" stroke-width="1.51"/><path d="M-143,1322L-68,1343L-62,1270Z" fill="#aeaeae" stroke="#aeaeae" stroke-width="1.51"/><path d="M-76,342L-141,405L-53,433Z" fill="#e6e6e6" stroke="#e6e6e6" stroke-width="1.51"/><path d="M-147,329L-141,405L-76,342Z" fill="#e9e9e9" stroke="#e9e9e9" stroke-width="1.51"/><path d="M770,1521L860,1504L849,1396Z" fill="#5d5d5d" stroke="#5d5d5d" stroke-width="1.51"/><path d="M1006,1360L1115,1364L1107,1279Z" fill="#494949" stroke="#494949" stroke-width="1.51"/><path d="M784,1630L860,1504L770,1521Z" fill="#5a5a5a" stroke="#5a5a5a" stroke-width="1.51"/><path d="M339,-61L229,103L335,121Z" fill="#dbdbdb" stroke="#dbdbdb" stroke-width="1.51"/><path d="M-68,1343L72,1479L110,1326Z" fill="#a3a3a3" stroke="#a3a3a3" stroke-width="1.51"/><path d="M187,1635L344,1607L314,1475Z" fill="#878787" stroke="#878787" stroke-width="1.51"/><path d="M1261,1231L1233,1100L1120,1149Z" fill="#464646" stroke="#464646" stroke-width="1.51"/><path d="M187,1635L314,1475L156,1463Z" fill="#8f8f8f" stroke="#8f8f8f" stroke-width="1.51"/><path d="M637,-32L528,23L554,105Z" fill="#c0c0c0" stroke="#c0c0c0" stroke-width="1.51"/><path d="M554,105L528,23L405,85Z" fill="#c7c7c7" stroke="#c7c7c7" stroke-width="1.51"/><path d="M851,55L756,77L785,236Z" fill="#a7a7a7" stroke="#a7a7a7" stroke-width="1.51"/><path d="M851,55L785,236L920,229Z" fill="#a1a1a1" stroke="#a1a1a1" stroke-width="1.51"/><path d="M784,1630L690,1600L734,1715Z" fill="#585858" stroke="#585858" stroke-width="1.51"/><path d="M648,1684L690,1600L512,1562Z" fill="#656565" stroke="#656565" stroke-width="1.51"/><path d="M1233,1100L1261,1049L1149,998Z" fill="#4b4b4b" stroke="#4b4b4b" stroke-width="1.51"/><path d="M1247,891L1261,1049L1251,805Z" fill="#4f4f4f" stroke="#4f4f4f" stroke-width="1.51"/><path d="M1044,312L1007,192L920,229Z" fill="#8d8d8d" stroke="#8d8d8d" stroke-width="1.51"/><path d="M1126,441L1124,336L1023,407Z" fill="#797979" stroke="#797979" stroke-width="1.51"/><path d="M1226,368L1126,441L1262,421Z" fill="#6d6d6d" stroke="#6d6d6d" stroke-width="1.51"/><path d="M637,-32L554,105L651,135Z" fill="#bbbbbb" stroke="#bbbbbb" stroke-width="1.51"/><path d="M405,85L402,17L335,121Z" fill="#d4d4d4" stroke="#d4d4d4" stroke-width="1.51"/><path d="M-133,1257L-143,1322L-62,1270Z" fill="#b1b1b1" stroke="#b1b1b1" stroke-width="1.51"/><path d="M-68,1343L-29,1510L72,1479Z" fill="#a2a2a2" stroke="#a2a2a2" stroke-width="1.51"/><path d="M-180,907L-143,1322L-133,1257Z" fill="#bababa" stroke="#bababa" stroke-width="1.51"/><path d="M-141,405L-147,329L-183,558Z" fill="#e7e7e7" stroke="#e7e7e7" stroke-width="1.51"/><path d="M-73,181L-147,329L-76,342Z" fill="#ebebeb" stroke="#ebebeb" stroke-width="1.51"/><path d="M-73,181L-76,342L45,218Z" fill="#eaeaea" stroke="#eaeaea" stroke-width="1.51"/><path d="M528,23L402,17L405,85Z" fill="#cecece" stroke="#cecece" stroke-width="1.51"/><path d="M1118,232L1007,192L1044,312Z" fill="#848484" stroke="#848484" stroke-width="1.51"/><path d="M1107,1279L1261,1231L1120,1149Z" fill="#464646" stroke="#464646" stroke-width="1.51"/><path d="M1233,1100L1261,1231L1261,1049Z" fill="#444444" stroke="#444444" stroke-width="1.51"/><path d="M1113,1458L1115,1364L1006,1360Z" fill="#454545" stroke="#454545" stroke-width="1.51"/><path d="M990,1501L849,1396L860,1504Z" fill="#575757" stroke="#575757" stroke-width="1.51"/><path d="M916,1578L990,1501L860,1504Z" fill="#515151" stroke="#515151" stroke-width="1.51"/><path d="M756,77L741,1L651,135Z" fill="#b1b1b1" stroke="#b1b1b1" stroke-width="1.51"/><path d="M1007,192L851,55L920,229Z" fill="#999999" stroke="#999999" stroke-width="1.51"/><path d="M72,1479L102,1584L156,1463Z" fill="#989898" stroke="#989898" stroke-width="1.51"/><path d="M-4,1589L102,1584L72,1479Z" fill="#989898" stroke="#989898" stroke-width="1.51"/><path d="M690,1600L784,1630L770,1521Z" fill="#5c5c5c" stroke="#5c5c5c" stroke-width="1.51"/><path d="M514,1686L512,1562L467,1588Z" fill="#717171" stroke="#717171" stroke-width="1.51"/><path d="M416,1727L514,1686L467,1588Z" fill="#6f6f6f" stroke="#6f6f6f" stroke-width="1.51"/><path d="M416,1727L467,1588L344,1607Z" fill="#777777" stroke="#777777" stroke-width="1.51"/><path d="M-187,1478L-29,1510L-68,1343Z" fill="#a6a6a6" stroke="#a6a6a6" stroke-width="1.51"/><path d="M784,1630L916,1578L860,1504Z" fill="#545454" stroke="#545454" stroke-width="1.51"/><path d="M-6,119L45,218L48,72Z" fill="#ebebeb" stroke="#ebebeb" stroke-width="1.51"/><path d="M-6,119L-73,181L45,218Z" fill="#ececec" stroke="#ececec" stroke-width="1.51"/><path d="M1007,192L1042,137L851,55Z" fill="#959595" stroke="#959595" stroke-width="1.51"/><path d="M1124,336L1118,232L1044,312Z" fill="#7c7c7c" stroke="#7c7c7c" stroke-width="1.51"/><path d="M1226,368L1118,232L1124,336Z" fill="#767676" stroke="#767676" stroke-width="1.51"/><path d="M851,55L741,1L756,77Z" fill="#ababab" stroke="#ababab" stroke-width="1.51"/><path d="M519,-112L339,-61L402,17Z" fill="#d3d3d3" stroke="#d3d3d3" stroke-width="1.51"/><path d="M200,1714L187,1635L52,1708Z" fill="#868686" stroke="#868686" stroke-width="1.51"/><path d="M102,1584L187,1635L156,1463Z" fill="#919191" stroke="#919191" stroke-width="1.51"/><path d="M1262,421L1190,584L1230,640Z" fill="#656565" stroke="#656565" stroke-width="1.51"/><path d="M1262,421L1126,441L1190,584Z" fill="#6c6c6c" stroke="#6c6c6c" stroke-width="1.51"/><path d="M1259,1354L1107,1279L1115,1364Z" fill="#414141" stroke="#414141" stroke-width="1.51"/><path d="M1259,1354L1261,1231L1107,1279Z" fill="#3e3e3e" stroke="#3e3e3e" stroke-width="1.51"/><path d="M1113,1458L1006,1360L990,1501Z" fill="#484848" stroke="#484848" stroke-width="1.51"/><path d="M48,72L45,218L229,103Z" fill="#e6e6e6" stroke="#e6e6e6" stroke-width="1.51"/><path d="M1251,805L1262,421L1230,640Z" fill="#606060" stroke="#606060" stroke-width="1.51"/><path d="M1261,1049L1262,421L1251,805Z" fill="#585858" stroke="#585858" stroke-width="1.51"/><path d="M1261,1231L1262,421L1261,1049Z" fill="#4f4f4f" stroke="#4f4f4f" stroke-width="1.51"/><path d="M514,1686L648,1684L512,1562Z" fill="#686868" stroke="#686868" stroke-width="1.51"/><path d="M908,1700L994,1625L916,1578Z" fill="#474747" stroke="#474747" stroke-width="1.51"/><path d="M741,1L637,-32L651,135Z" fill="#b6b6b6" stroke="#b6b6b6" stroke-width="1.51"/><path d="M193,-14L229,103L339,-61Z" fill="#e0e0e0" stroke="#e0e0e0" stroke-width="1.51"/><path d="M193,-14L48,72L229,103Z" fill="#e6e6e6" stroke="#e6e6e6" stroke-width="1.51"/><path d="M1118,232L1042,137L1007,192Z" fill="#868686" stroke="#868686" stroke-width="1.51"/><path d="M851,55L888,-60L741,1Z" fill="#a8a8a8" stroke="#a8a8a8" stroke-width="1.51"/><path d="M1114,1569L1113,1458L990,1501Z" fill="#404040" stroke="#404040" stroke-width="1.51"/><path d="M187,1635L290,1687L344,1607Z" fill="#828282" stroke="#828282" stroke-width="1.51"/><path d="M339,-61L335,121L402,17Z" fill="#d8d8d8" stroke="#d8d8d8" stroke-width="1.51"/><path d="M290,1687L416,1727L344,1607Z" fill="#797979" stroke="#797979" stroke-width="1.51"/><path d="M631,1848L734,1715L648,1684Z" fill="#555555" stroke="#555555" stroke-width="1.51"/><path d="M519,-112L402,17L528,23Z" fill="#cbcbcb" stroke="#cbcbcb" stroke-width="1.51"/><path d="M-29,1510L-4,1589L72,1479Z" fill="#9c9c9c" stroke="#9c9c9c" stroke-width="1.51"/><path d="M187,1635L200,1714L290,1687Z" fill="#828282" stroke="#828282" stroke-width="1.51"/><path d="M-116,1623L-4,1589L-29,1510Z" fill="#9b9b9b" stroke="#9b9b9b" stroke-width="1.51"/><path d="M916,1578L994,1625L990,1501Z" fill="#494949" stroke="#494949" stroke-width="1.51"/><path d="M648,1684L734,1715L690,1600Z" fill="#5b5b5b" stroke="#5b5b5b" stroke-width="1.51"/><path d="M508,1791L648,1684L514,1686Z" fill="#626262" stroke="#626262" stroke-width="1.51"/><path d="M1118,232L1080,111L1042,137Z" fill="#848484" stroke="#848484" stroke-width="1.51"/><path d="M977,-32L888,-60L851,55Z" fill="#a1a1a1" stroke="#a1a1a1" stroke-width="1.51"/><path d="M1188,135L1080,111L1118,232Z" fill="#7e7e7e" stroke="#7e7e7e" stroke-width="1.51"/><path d="M1209,180L1118,232L1226,368Z" fill="#757575" stroke="#757575" stroke-width="1.51"/><path d="M1221,1459L1259,1354L1115,1364Z" fill="#3a3a3a" stroke="#3a3a3a" stroke-width="1.51"/><path d="M52,1708L187,1635L102,1584Z" fill="#8c8c8c" stroke="#8c8c8c" stroke-width="1.51"/><path d="M290,1687L336,1831L416,1727Z" fill="#737373" stroke="#737373" stroke-width="1.51"/><path d="M908,1700L916,1578L784,1630Z" fill="#4e4e4e" stroke="#4e4e4e" stroke-width="1.51"/><path d="M1113,1458L1221,1459L1115,1364Z" fill="#3c3c3c" stroke="#3c3c3c" stroke-width="1.51"/><path d="M637,-32L519,-112L528,23Z" fill="#c3c3c3" stroke="#c3c3c3" stroke-width="1.51"/><path d="M635,-167L519,-112L637,-32Z" fill="#c1c1c1" stroke="#c1c1c1" stroke-width="1.51"/><path d="M635,-167L637,-32L751,-159Z" fill="#bababa" stroke="#bababa" stroke-width="1.51"/><path d="M-4,1589L52,1708L102,1584Z" fill="#919191" stroke="#919191" stroke-width="1.51"/><path d="M-143,1322L-187,1478L-68,1343Z" fill="#ababab" stroke="#ababab" stroke-width="1.51"/><path d="M-180,907L-187,1478L-143,1322Z" fill="#b6b6b6" stroke="#b6b6b6" stroke-width="1.51"/><path d="M-183,558L-187,1478L-180,907Z" fill="#c7c7c7" stroke="#c7c7c7" stroke-width="1.51"/><path d="M-124,90L-73,181L-6,119Z" fill="#f0f0f0" stroke="#f0f0f0" stroke-width="1.51"/><path d="M-124,90L-185,168L-73,181Z" fill="#f2f2f2" stroke="#f2f2f2" stroke-width="1.51"/><path d="M193,-14L116,-38L48,72Z" fill="#eaeaea" stroke="#eaeaea" stroke-width="1.51"/><path d="M193,-122L116,-38L193,-14Z" fill="#e8e8e8" stroke="#e8e8e8" stroke-width="1.51"/><path d="M302,-108L193,-14L339,-61Z" fill="#e0e0e0" stroke="#e0e0e0" stroke-width="1.51"/><path d="M-124,90L-6,119L-5,-26Z" fill="#f2f2f2" stroke="#f2f2f2" stroke-width="1.51"/><path d="M-73,181L-185,168L-147,329Z" fill="#efefef" stroke="#efefef" stroke-width="1.51"/><path d="M-147,329L-185,168L-183,558Z" fill="#ececec" stroke="#ececec" stroke-width="1.51"/><path d="M-183,558L-185,168L-187,1478Z" fill="#d8d8d8" stroke="#d8d8d8" stroke-width="1.51"/><path d="M442,-167L302,-108L339,-61Z" fill="#dbdbdb" stroke="#dbdbdb" stroke-width="1.51"/><path d="M1114,1569L1221,1459L1113,1458Z" fill="#393939" stroke="#393939" stroke-width="1.51"/><path d="M433,1857L508,1791L416,1727Z" fill="#656565" stroke="#656565" stroke-width="1.51"/><path d="M416,1727L508,1791L514,1686Z" fill="#676767" stroke="#676767" stroke-width="1.51"/><path d="M-5,-26L-6,119L48,72Z" fill="#efefef" stroke="#efefef" stroke-width="1.51"/><path d="M1262,421L1209,180L1226,368Z" fill="#6e6e6e" stroke="#6e6e6e" stroke-width="1.51"/><path d="M994,1625L1114,1569L990,1501Z" fill="#414141" stroke="#414141" stroke-width="1.51"/><path d="M734,1715L908,1700L784,1630Z" fill="#4f4f4f" stroke="#4f4f4f" stroke-width="1.51"/><path d="M977,1745L908,1700L886,1810Z" fill="#404040" stroke="#404040" stroke-width="1.51"/><path d="M1144,1752L1114,1569L994,1625Z" fill="#343434" stroke="#343434" stroke-width="1.51"/><path d="M977,-32L1042,137L1080,111Z" fill="#8d8d8d" stroke="#8d8d8d" stroke-width="1.51"/><path d="M977,-32L851,55L1042,137Z" fill="#989898" stroke="#989898" stroke-width="1.51"/><path d="M1209,180L1188,135L1118,232Z" fill="#797979" stroke="#797979" stroke-width="1.51"/><path d="M-36,1706L52,1708L-4,1589Z" fill="#909090" stroke="#909090" stroke-width="1.51"/><path d="M238,1818L336,1831L290,1687Z" fill="#757575" stroke="#757575" stroke-width="1.51"/><path d="M1118,5L977,-32L1080,111Z" fill="#8b8b8b" stroke="#8b8b8b" stroke-width="1.51"/><path d="M116,-38L-5,-26L48,72Z" fill="#eeeeee" stroke="#eeeeee" stroke-width="1.51"/><path d="M48,-172L-5,-26L116,-38Z" fill="#f0f0f0" stroke="#f0f0f0" stroke-width="1.51"/><path d="M519,-112L442,-167L339,-61Z" fill="#d3d3d3" stroke="#d3d3d3" stroke-width="1.51"/><path d="M302,-108L193,-122L193,-14Z" fill="#e4e4e4" stroke="#e4e4e4" stroke-width="1.51"/><path d="M635,-167L442,-167L519,-112Z" fill="#c9c9c9" stroke="#c9c9c9" stroke-width="1.51"/><path d="M442,-167L193,-122L302,-108Z" fill="#dfdfdf" stroke="#dfdfdf" stroke-width="1.51"/><path d="M-187,1478L-116,1623L-29,1510Z" fill="#a0a0a0" stroke="#a0a0a0" stroke-width="1.51"/><path d="M751,-159L741,1L888,-60Z" fill="#adadad" stroke="#adadad" stroke-width="1.51"/><path d="M751,-159L637,-32L741,1Z" fill="#b5b5b5" stroke="#b5b5b5" stroke-width="1.51"/><path d="M238,1818L290,1687L200,1714Z" fill="#7b7b7b" stroke="#7b7b7b" stroke-width="1.51"/><path d="M508,1791L631,1848L648,1684Z" fill="#595959" stroke="#595959" stroke-width="1.51"/><path d="M890,-115L751,-159L888,-60Z" fill="#a9a9a9" stroke="#a9a9a9" stroke-width="1.51"/><path d="M35,1808L200,1714L52,1708Z" fill="#848484" stroke="#848484" stroke-width="1.51"/><path d="M35,1808L238,1818L200,1714Z" fill="#7d7d7d" stroke="#7d7d7d" stroke-width="1.51"/><path d="M977,-32L890,-115L888,-60Z" fill="#a1a1a1" stroke="#a1a1a1" stroke-width="1.51"/><path d="M1037,-112L890,-115L977,-32Z" fill="#9a9a9a" stroke="#9a9a9a" stroke-width="1.51"/><path d="M-116,1623L-36,1706L-4,1589Z" fill="#959595" stroke="#959595" stroke-width="1.51"/><path d="M635,1925L631,1848L505,1967Z" fill="#515151" stroke="#515151" stroke-width="1.51"/><path d="M438,1955L433,1857L336,1831Z" fill="#646464" stroke="#646464" stroke-width="1.51"/><path d="M336,1831L433,1857L416,1727Z" fill="#6a6a6a" stroke="#6a6a6a" stroke-width="1.51"/><path d="M1188,135L1118,5L1080,111Z" fill="#818181" stroke="#818181" stroke-width="1.51"/><path d="M908,1700L977,1745L994,1625Z" fill="#404040" stroke="#404040" stroke-width="1.51"/><path d="M1114,1569L1250,1626L1221,1459Z" fill="#313131" stroke="#313131" stroke-width="1.51"/><path d="M886,1810L908,1700L734,1715Z" fill="#474747" stroke="#474747" stroke-width="1.51"/><path d="M-116,1623L-115,1682L-36,1706Z" fill="#939393" stroke="#939393" stroke-width="1.51"/><path d="M-36,1706L35,1808L52,1708Z" fill="#888888" stroke="#888888" stroke-width="1.51"/><path d="M-187,1478L-115,1682L-116,1623Z" fill="#9c9c9c" stroke="#9c9c9c" stroke-width="1.51"/><path d="M635,1925L729,1851L631,1848Z" fill="#4c4c4c" stroke="#4c4c4c" stroke-width="1.51"/><path d="M631,1848L729,1851L734,1715Z" fill="#4e4e4e" stroke="#4e4e4e" stroke-width="1.51"/><path d="M729,1851L886,1810L734,1715Z" fill="#484848" stroke="#484848" stroke-width="1.51"/><path d="M-3,1855L35,1808L-36,1706Z" fill="#858585" stroke="#858585" stroke-width="1.51"/><path d="M274,1981L438,1955L336,1831Z" fill="#666666" stroke="#666666" stroke-width="1.51"/><path d="M890,-115L1088,-121L751,-159Z" fill="#a3a3a3" stroke="#a3a3a3" stroke-width="1.51"/><path d="M1118,5L1037,-112L977,-32Z" fill="#8e8e8e" stroke="#8e8e8e" stroke-width="1.51"/><path d="M-5,-26L-168,-35L-124,90Z" fill="#f5f5f5" stroke="#f5f5f5" stroke-width="1.51"/><path d="M-124,90L-168,-35L-185,168Z" fill="#f6f6f6" stroke="#f6f6f6" stroke-width="1.51"/><path d="M-70,-158L-168,-35L-5,-26Z" fill="#f7f7f7" stroke="#f7f7f7" stroke-width="1.51"/><path d="M635,-167L48,-172L442,-167Z" fill="#dadada" stroke="#dadada" stroke-width="1.51"/><path d="M442,-167L48,-172L193,-122Z" fill="#e6e6e6" stroke="#e6e6e6" stroke-width="1.51"/><path d="M193,-122L48,-172L116,-38Z" fill="#ededed" stroke="#ededed" stroke-width="1.51"/><path d="M1144,1752L994,1625L977,1745Z" fill="#353535" stroke="#353535" stroke-width="1.51"/><path d="M1233,1716L1250,1626L1114,1569Z" fill="#2b2b2b" stroke="#2b2b2b" stroke-width="1.51"/><path d="M1221,1459L1250,1626L1259,1354Z" fill="#313131" stroke="#313131" stroke-width="1.51"/><path d="M505,1967L631,1848L508,1791Z" fill="#575757" stroke="#575757" stroke-width="1.51"/><path d="M794,1956L922,1903L886,1810Z" fill="#3b3b3b" stroke="#3b3b3b" stroke-width="1.51"/><path d="M505,1967L508,1791L433,1857Z" fill="#5d5d5d" stroke="#5d5d5d" stroke-width="1.51"/><path d="M1037,-112L1088,-121L890,-115Z" fill="#969696" stroke="#969696" stroke-width="1.51"/><path d="M1118,5L1088,-121L1037,-112Z" fill="#8a8a8a" stroke="#8a8a8a" stroke-width="1.51"/><path d="M1202,-51L1088,-121L1118,5Z" fill="#838383" stroke="#838383" stroke-width="1.51"/><path d="M1202,-51L1118,5L1188,135Z" fill="#7d7d7d" stroke="#7d7d7d" stroke-width="1.51"/><path d="M217,1943L336,1831L238,1818Z" fill="#6f6f6f" stroke="#6f6f6f" stroke-width="1.51"/><path d="M1209,180L1202,-51L1188,135Z" fill="#797979" stroke="#797979" stroke-width="1.51"/><path d="M1224,-173L1202,-51L1209,180Z" fill="#7a7a7a" stroke="#7a7a7a" stroke-width="1.51"/><path d="M1025,1867L977,1745L886,1810Z" fill="#363636" stroke="#363636" stroke-width="1.51"/><path d="M1025,1867L1144,1752L977,1745Z" fill="#2d2d2d" stroke="#2d2d2d" stroke-width="1.51"/><path d="M48,-172L-70,-158L-5,-26Z" fill="#f4f4f4" stroke="#f4f4f4" stroke-width="1.51"/><path d="M438,1955L505,1967L433,1857Z" fill="#5c5c5c" stroke="#5c5c5c" stroke-width="1.51"/><path d="M50,1932L217,1943L238,1818Z" fill="#747474" stroke="#747474" stroke-width="1.51"/><path d="M-166,1849L-3,1855L-36,1706Z" fill="#878787" stroke="#878787" stroke-width="1.51"/><path d="M50,1932L238,1818L35,1808Z" fill="#7a7a7a" stroke="#7a7a7a" stroke-width="1.51"/><path d="M438,1955L412,2010L505,1967Z" fill="#595959" stroke="#595959" stroke-width="1.51"/><path d="M1144,1752L1233,1716L1114,1569Z" fill="#2b2b2b" stroke="#2b2b2b" stroke-width="1.51"/><path d="M794,1956L729,1851L635,1925Z" fill="#464646" stroke="#464646" stroke-width="1.51"/><path d="M794,1956L886,1810L729,1851Z" fill="#414141" stroke="#414141" stroke-width="1.51"/><path d="M1144,1752L1201,1845L1233,1716Z" fill="#222222" stroke="#222222" stroke-width="1.51"/><path d="M922,1903L1025,1867L886,1810Z" fill="#353535" stroke="#353535" stroke-width="1.51"/><path d="M922,1903L1037,1971L1025,1867Z" fill="#2d2d2d" stroke="#2d2d2d" stroke-width="1.51"/><path d="M768,2010L794,1956L635,1925Z" fill="#424242" stroke="#424242" stroke-width="1.51"/><path d="M48,-172L-153,-150L-70,-158Z" fill="#f8f8f8" stroke="#f8f8f8" stroke-width="1.51"/><path d="M-70,-158L-153,-150L-168,-35Z" fill="#fafafa" stroke="#fafafa" stroke-width="1.51"/><path d="M217,1943L274,1981L336,1831Z" fill="#6b6b6b" stroke="#6b6b6b" stroke-width="1.51"/><path d="M695,2067L768,2010L635,1925Z" fill="#424242" stroke="#424242" stroke-width="1.51"/><path d="M158,2049L274,1981L217,1943Z" fill="#6b6b6b" stroke="#6b6b6b" stroke-width="1.51"/><path d="M274,1981L412,2010L438,1955Z" fill="#606060" stroke="#606060" stroke-width="1.51"/><path d="M1025,1867L1146,1818L1144,1752Z" fill="#252525" stroke="#252525" stroke-width="1.51"/><path d="M-3,1855L50,1932L35,1808Z" fill="#7e7e7e" stroke="#7e7e7e" stroke-width="1.51"/><path d="M1134,1944L1201,1845L1146,1818Z" fill="#1e1e1e" stroke="#1e1e1e" stroke-width="1.51"/><path d="M794,1956L917,2091L922,1903Z" fill="#353535" stroke="#353535" stroke-width="1.51"/><path d="M510,2065L635,1925L505,1967Z" fill="#505050" stroke="#505050" stroke-width="1.51"/><path d="M-3,1855L-47,1976L50,1932Z" fill="#7b7b7b" stroke="#7b7b7b" stroke-width="1.51"/><path d="M-115,1682L-166,1849L-36,1706Z" fill="#8d8d8d" stroke="#8d8d8d" stroke-width="1.51"/><path d="M-187,1478L-166,1849L-115,1682Z" fill="#969696" stroke="#969696" stroke-width="1.51"/><path d="M412,2010L510,2065L505,1967Z" fill="#555555" stroke="#555555" stroke-width="1.51"/><path d="M323,2085L510,2065L412,2010Z" fill="#585858" stroke="#585858" stroke-width="1.51"/><path d="M323,2085L412,2010L274,1981Z" fill="#606060" stroke="#606060" stroke-width="1.51"/><path d="M1134,1944L1146,1818L1025,1867Z" fill="#222222" stroke="#222222" stroke-width="1.51"/><path d="M1146,1818L1201,1845L1144,1752Z" fill="#212121" stroke="#212121" stroke-width="1.51"/><path d="M1202,-51L1224,-173L1088,-121Z" fill="#818181" stroke="#818181" stroke-width="1.51"/><path d="M1088,-121L1224,-173L751,-159Z" fill="#949494" stroke="#949494" stroke-width="1.51"/><path d="M751,-159L1224,-173L635,-167Z" fill="#a8a8a8" stroke="#a8a8a8" stroke-width="1.51"/><path d="M635,-167L1224,-173L48,-172Z" fill="#bfbfbf" stroke="#bfbfbf" stroke-width="1.51"/><path d="M1262,421L1224,-173L1209,180Z" fill="#747474" stroke="#747474" stroke-width="1.51"/><path d="M510,2065L695,2067L635,1925Z" fill="#484848" stroke="#484848" stroke-width="1.51"/><path d="M1020,2054L1037,1971L922,1903Z" fill="#292929" stroke="#292929" stroke-width="1.51"/><path d="M50,1932L102,2027L217,1943Z" fill="#727272" stroke="#727272" stroke-width="1.51"/><path d="M-47,1976L102,2027L50,1932Z" fill="#767676" stroke="#767676" stroke-width="1.51"/><path d="M917,2091L794,1956L768,2010Z" fill="#373737" stroke="#373737" stroke-width="1.51"/><path d="M102,2027L158,2049L217,1943Z" fill="#6e6e6e" stroke="#6e6e6e" stroke-width="1.51"/><path d="M158,2049L323,2085L274,1981Z" fill="#656565" stroke="#656565" stroke-width="1.51"/><path d="M510,2065L323,2085L695,2067Z" fill="#4e4e4e" stroke="#4e4e4e" stroke-width="1.51"/><path d="M-165,1916L-47,1976L-3,1855Z" fill="#7e7e7e" stroke="#7e7e7e" stroke-width="1.51"/><path d="M102,2027L-156,2068L158,2049Z" fill="#717171" stroke="#717171" stroke-width="1.51"/><path d="M-166,1849L-165,1916L-3,1855Z" fill="#838383" stroke="#838383" stroke-width="1.51"/><path d="M-187,1478L-165,1916L-166,1849Z" fill="#8f8f8f" stroke="#8f8f8f" stroke-width="1.51"/><path d="M1037,1971L1134,1944L1025,1867Z" fill="#232323" stroke="#232323" stroke-width="1.51"/><path d="M1193,1952L1134,1944L1141,2041Z" fill="#191919" stroke="#191919" stroke-width="1.51"/><path d="M-165,1916L-69,2014L-47,1976Z" fill="#7c7c7c" stroke="#7c7c7c" stroke-width="1.51"/><path d="M-47,1976L-69,2014L102,2027Z" fill="#767676" stroke="#767676" stroke-width="1.51"/><path d="M158,2049L-156,2068L323,2085Z" fill="#6c6c6c" stroke="#6c6c6c" stroke-width="1.51"/><path d="M1134,1944L1193,1952L1201,1845Z" fill="#1a1a1a" stroke="#1a1a1a" stroke-width="1.51"/><path d="M1201,1845L1227,2018L1233,1716Z" fill="#1a1a1a" stroke="#1a1a1a" stroke-width="1.51"/><path d="M1233,1716L1227,2018L1250,1626Z" fill="#1d1d1d" stroke="#1d1d1d" stroke-width="1.51"/><path d="M1141,2041L1134,1944L1037,1971Z" fill="#1c1c1c" stroke="#1c1c1c" stroke-width="1.51"/><path d="M323,2085L917,2091L695,2067Z" fill="#424242" stroke="#424242" stroke-width="1.51"/><path d="M695,2067L917,2091L768,2010Z" fill="#373737" stroke="#373737" stroke-width="1.51"/><path d="M917,2091L1020,2054L922,1903Z" fill="#2c2c2c" stroke="#2c2c2c" stroke-width="1.51"/><path d="M917,2091L1141,2041L1020,2054Z" fill="#212121" stroke="#212121" stroke-width="1.51"/><path d="M1020,2054L1141,2041L1037,1971Z" fill="#1f1f1f" stroke="#1f1f1f" stroke-width="1.51"/><path d="M1141,2041L1227,2018L1193,1952Z" fill="#151515" stroke="#151515" stroke-width="1.51"/><path d="M1193,1952L1227,2018L1201,1845Z" fill="#171717" stroke="#171717" stroke-width="1.51"/><path d="M-165,1916L-156,2068L-69,2014Z" fill="#7c7c7c" stroke="#7c7c7c" stroke-width="1.51"/><path d="M-69,2014L-156,2068L102,2027Z" fill="#767676" stroke="#767676" stroke-width="1.51"/></svg>